<svg role="img" xmlns="http://www.w3.org/2000/svg">
<defs>

<symbol id="icon-html" viewBox="0 0 24 24"><title>HTML5 icon</title><path d="M1.5 0h21l-1.91 21.563L11.977 24l-8.564-2.438L1.5 0zm7.031 9.75l-.232-2.718 10.059.003.23-2.622L5.412 4.41l.698 8.01h9.126l-.326 3.426-2.91.804-2.955-.81-.188-2.11H6.248l.33 4.171L12 19.351l5.379-1.443.744-8.157H8.531z"/></symbol>
<symbol version="1.1" id="icon-darr" x="0px" y="0px"
	 viewBox="0 0 256 256" style="enable-background:new 0 0 256 256;" xml:space="preserve">
<g>
	<g>
		<polygon points="225.813,48.907 128,146.72 30.187,48.907 0,79.093 128,207.093 256,79.093 		"/>
	</g>
</g>
<g>
</g>
<g>
</g>
<g>
</g>
<g>
</g>
<g>
</g>
<g>
</g>
<g>
</g>
<g>
</g>
<g>
</g>
<g>
</g>
<g>
</g>
<g>
</g>
<g>
</g>
<g>
</g>
<g>
</g>
</symbol>
<symbol id="icon-play" x="0px" y="0px"
	 viewBox="0 0 41.999 41.999" style="enable-background:new 0 0 41.999 41.999;" xml:space="preserve">
<path d="M36.068,20.176l-29-20C6.761-0.035,6.363-0.057,6.035,0.114C5.706,0.287,5.5,0.627,5.5,0.999v40
	c0,0.372,0.206,0.713,0.535,0.886c0.146,0.076,0.306,0.114,0.465,0.114c0.199,0,0.397-0.06,0.568-0.177l29-20
	c0.271-0.187,0.432-0.494,0.432-0.823S36.338,20.363,36.068,20.176z"/>
<g>
</g>
<g>
</g>
<g>
</g>
<g>
</g>
<g>
</g>
<g>
</g>
<g>
</g>
<g>
</g>
<g>
</g>
<g>
</g>
<g>
</g>
<g>
</g>
<g>
</g>
<g>
</g>
<g> 
</g>
</symbol>
<symbol id="icon-stop" x="0px" y="0px"
	 viewBox="0 0 512 512" style="enable-background:new 0 0 512 512;" xml:space="preserve">
<g>
	<g>
		<path d="M256,0C114.844,0,0,114.844,0,256s114.844,256,256,256s256-114.844,256-256S397.156,0,256,0z M359.54,329.374
			c4.167,4.165,4.167,10.919,0,15.085L344.46,359.54c-4.167,4.165-10.919,4.165-15.086,0L256,286.167l-73.374,73.374
			c-4.167,4.165-10.919,4.165-15.086,0l-15.081-15.082c-4.167-4.165-4.167-10.919,0-15.085l73.374-73.375l-73.374-73.374
			c-4.167-4.165-4.167-10.919,0-15.085l15.081-15.082c4.167-4.165,10.919-4.165,15.086,0L256,225.832l73.374-73.374
			c4.167-4.165,10.919-4.165,15.086,0l15.081,15.082c4.167,4.165,4.167,10.919,0,15.085l-73.374,73.374L359.54,329.374z"/>
	</g>
</g>
<g>
</g>
<g>
</g>
<g>
</g>
<g>
</g>
<g>
</g>
<g>
</g>
<g>
</g>
<g>
</g>
<g>
</g>
<g>
</g>
<g>
</g>
<g>
</g>
<g>
</g>
<g>
</g>
<g>
</g>
</symbol>
<symbol id="icon-stop2" x="0px" y="0px"
	 viewBox="0 0 298.667 298.667" style="enable-background:new 0 0 298.667 298.667;" xml:space="preserve">
<g>
	<g>
		<polygon points="298.667,30.187 268.48,0 149.333,119.147 30.187,0 0,30.187 119.147,149.333 0,268.48 30.187,298.667 
			149.333,179.52 268.48,298.667 298.667,268.48 179.52,149.333 		"/>
	</g>
</g>
<g>
</g>
<g>
</g>
<g>
</g>
<g>
</g>
<g>
</g>
<g>
</g>
<g>
</g>
<g>
</g>
<g>
</g>
<g>
</g>
<g>
</g>
<g>
</g>
<g>
</g>
<g>
</g>
<g>
</g>
</symbol>
<symbol version="1.1" id="icon-stop3"  x="0px" y="0px"
	 viewBox="0 0 28 28" style="enable-background:new 0 0 28 28;" xml:space="preserve">
<g>
	<g id="x">
		<g>
			<polygon points="28,22.398 19.594,14 28,5.602 22.398,0 14,8.402 5.598,0 0,5.602 8.398,14 0,22.398 
				5.598,28 14,19.598 22.398,28 			"/>
		</g>
	</g>
</g>
<g>
</g>
<g>
</g>
<g>
</g>
<g>
</g>
<g>
</g>
<g>
</g>
<g>
</g>
<g>
</g>
<g>
</g>
<g>
</g>
<g>
</g>
<g>
</g>
<g>
</g>
<g>
</g>
<g>
</g>
</symbol>
</defs>
</svg>
